<?xml version="1.0" encoding="UTF-8"?>
<svg width="1024px" height="779px" viewBox="0 0 1024 779" version="1.1" xmlns="http://www.w3.org/2000/svg" xmlns:xlink="http://www.w3.org/1999/xlink">
    <title>Gauge</title>
    <g id="Icons" stroke="none" stroke-width="1" fill="none" fill-rule="evenodd">
        <g id="iOS" transform="translate(0, -245)" stroke="#FFFFFF" stroke-width="150">
            <path d="M765.5,320 C894.094912,320 1011.26799,379.78967 1095.79884,478.645923 C1176.40806,572.915952 1227,702.960628 1227,847 C1227,991.039372 1176.40806,1121.08405 1095.79884,1215.35408 C1011.26799,1314.21033 894.094912,1374 765.5,1374 C672.617063,1374 585.76335,1342.82116 512.813969,1288.2839 L512.001,1287.671 L510.493206,1288.80334 C438.612255,1342.33163 353.278199,1373.21192 262.013105,1373.98512 L258.5,1374 C129.905088,1374 12.7320056,1314.21033 -71.7988387,1215.35408 C-152.408056,1121.08405 -203,991.039372 -203,847 C-203,702.960628 -152.408056,572.915952 -71.7988387,478.645923 C12.7320056,379.78967 129.905088,320 258.5,320 C351.3804,320 438.231904,351.177136 511.180052,405.71163 L511.999,406.328 L512.819948,405.71163 C584.856244,351.858818 670.450485,320.783078 762.019826,320.014599 Z" id="Gauge"></path>
        </g>
    </g>
</svg>