<?xml version="1.0" encoding="UTF-8" standalone="no"?>
<!DOCTYPE svg PUBLIC "-//W3C//DTD SVG 1.1//EN" "http://www.w3.org/Graphics/SVG/1.1/DTD/svg11.dtd">
<svg width="100%" height="100%" viewBox="0 0 25 25" version="1.1" xmlns="http://www.w3.org/2000/svg" xmlns:xlink="http://www.w3.org/1999/xlink" xml:space="preserve" xmlns:serif="http://www.serif.com/" style="fill-rule:evenodd;clip-rule:evenodd;stroke-linejoin:round;stroke-miterlimit:2;">
    <g id="Artboard1" transform="matrix(1,0,0,1.03179,0,0)">
        <rect x="0" y="0" width="25" height="24.23" style="fill:none;"/>
        <g transform="matrix(1.09176,0,0,1.05812,-4.93607,-4.8187)">
            <path d="M13.54,8C13.54,7.451 13.991,7 14.54,7L26.42,7C26.969,7 27.42,7.451 27.42,8C27.42,8.549 26.969,9 26.42,9L14.54,9C13.991,9 13.54,8.549 13.54,8ZM6.34,10.7C6.524,10.946 6.813,11.094 7.12,11.1C7.428,11.102 7.719,10.961 7.91,10.72L11.22,6.52C11.556,6.089 11.479,5.458 11.05,5.12C10.621,4.782 9.991,4.854 9.65,5.28L7.15,8.46L6.37,7.46C6.188,7.167 5.866,6.989 5.521,6.989C4.973,6.989 4.521,7.44 4.521,7.989C4.521,8.237 4.613,8.476 4.78,8.66L6.34,10.7ZM26.42,15L14.54,15C13.991,15 13.54,15.451 13.54,16C13.54,16.549 13.991,17 14.54,17L26.42,17C26.969,17 27.42,16.549 27.42,16C27.42,15.451 26.969,15 26.42,15ZM9.66,13.28L7.15,16.46L6.37,15.46C6.188,15.167 5.866,14.989 5.521,14.989C4.973,14.989 4.521,15.44 4.521,15.989C4.521,16.237 4.613,16.476 4.78,16.66L6.34,18.7C6.524,18.946 6.813,19.094 7.12,19.1C7.428,19.102 7.719,18.961 7.91,18.72L11.22,14.52C11.556,14.089 11.479,13.458 11.05,13.12C10.623,12.788 10.001,12.86 9.66,13.28ZM26.42,23L14.54,23C13.991,23 13.54,23.451 13.54,24C13.54,24.549 13.991,25 14.54,25L26.42,25C26.969,25 27.42,24.549 27.42,24C27.42,23.451 26.969,23 26.42,23ZM9.66,21.28L7.15,24.46L6.37,23.46C6.188,23.167 5.866,22.989 5.521,22.989C4.973,22.989 4.521,23.44 4.521,23.989C4.521,24.237 4.613,24.476 4.78,24.66L6.34,26.7C6.524,26.946 6.813,27.094 7.12,27.1C7.428,27.102 7.719,26.961 7.91,26.72L11.22,22.52C11.556,22.089 11.479,21.458 11.05,21.12C10.623,20.788 10.001,20.86 9.66,21.28Z" style="fill-rule:nonzero;"/>
        </g>
    </g>
</svg>
