<?xml version="1.0" encoding="UTF-8" standalone="no"?>
<!DOCTYPE svg PUBLIC "-//W3C//DTD SVG 1.1//EN" "http://www.w3.org/Graphics/SVG/1.1/DTD/svg11.dtd">
<svg width="100%" height="100%" viewBox="0 0 25 26" version="1.1" xmlns="http://www.w3.org/2000/svg" xmlns:xlink="http://www.w3.org/1999/xlink" xml:space="preserve" xmlns:serif="http://www.serif.com/" style="fill-rule:evenodd;clip-rule:evenodd;stroke-linejoin:round;stroke-miterlimit:2;">
    <g id="Artboard1" transform="matrix(0.535025,0,0,0.535025,-0.875693,-0.535025)">
        <rect x="1.637" y="1" width="46.727" height="48" style="fill:none;"/>
        <g transform="matrix(0.973476,0,0,0.973476,0.663116,0.663112)">
            <path d="M48.3,46.8L44,32.2L34.2,28.8L28,38.9L26.7,31.9L29.1,30.2C29.8,29.5 29.3,28.3 28.3,28.3L21.5,28.3C20.5,28.3 20,29.5 20.7,30.2L23.1,31.9L21.8,38.9L15.6,28.7L6,32.2L1.7,46.8C1.4,47.9 2.2,49 3.4,49L46.7,49C47.8,49 48.6,47.9 48.3,46.8Z" style="fill-rule:nonzero;"/>
            <path d="M15.1,14.6C15.5,20 19.8,26.2 25,26.2C30.3,26.2 34.5,20 34.9,14.6C32.4,15.9 28.7,16.5 25,16.5C21.3,16.5 17.6,15.9 15.1,14.6Z" style="fill-rule:nonzero;"/>
            <path d="M14.3,10C14.2,10.2 14.1,10.5 14.1,10.7C14.1,13.6 21.9,14.5 25,14.5C28.6,14.5 35.9,13.4 35.9,10.7C35.9,10.5 35.8,10.2 35.7,10C38.4,9 40,7.7 40,6.3C40,3.4 33.3,1 25,1C16.7,1 10,3.4 10,6.3C10,7.7 11.6,9 14.3,10ZM18.017,4.759L23.463,5.88C23.688,5.23 24.142,4.865 24.875,4.841L25.125,4.841C25.858,4.865 26.312,5.23 26.537,5.88L31.983,4.759L31.983,6.297L24.999,8.956L18.017,6.297L18.017,4.759Z"/>
        </g>
    </g>
</svg>
