<?xml version="1.0" encoding="UTF-8" standalone="no"?>
<!DOCTYPE svg PUBLIC "-//W3C//DTD SVG 1.1//EN" "http://www.w3.org/Graphics/SVG/1.1/DTD/svg11.dtd">
<svg width="100%" height="100%" viewBox="0 0 25 25" version="1.1" xmlns="http://www.w3.org/2000/svg" xmlns:xlink="http://www.w3.org/1999/xlink" xml:space="preserve" xmlns:serif="http://www.serif.com/" style="fill-rule:evenodd;clip-rule:evenodd;stroke-linejoin:round;stroke-miterlimit:2;">
    <g id="Artboard1" transform="matrix(1,0,0,1.85187,0,0)">
        <rect x="0" y="0" width="25" height="13.5" style="fill:none;"/>
        <g transform="matrix(0.249998,0,0,0.134997,0,6.74987e-05)">
            <circle cx="50" cy="39.041" r="3.708"/>
            <circle cx="49.834" cy="69.125" r="7.875"/>
            <circle cx="33.521" cy="43.725" r="3.707"/>
            <circle cx="20.725" cy="55.521" r="3.707"/>
            <circle cx="15.041" cy="73" r="3.708"/>
            <circle cx="84.959" cy="73" r="3.708"/>
            <circle cx="79.275" cy="55.521" r="3.707"/>
            <circle cx="66.479" cy="43.725" r="3.707"/>
            <path d="M46.034,64.302L76.737,47.379L51.944,72.166L46.034,64.302Z" style="fill-rule:nonzero;"/>
            <rect x="3" y="69" width="93" height="8"/>
            <path d="M7.693,77C7.57,75.683 7.5,74.35 7.5,73C7.5,49.528 26.528,30.5 50,30.5C73.472,30.5 92.5,49.528 92.5,73C92.5,74.35 92.43,75.683 92.307,77L99.827,77C99.932,75.679 100.001,74.348 100.001,73C100.001,45.386 77.615,23 50.001,23C22.387,23 0,45.386 0,73C0,74.348 0.069,75.679 0.174,77L7.693,77Z" style="fill-rule:nonzero;"/>
        </g>
    </g>
</svg>
